<?xml version="1.0" encoding="UTF-8" standalone="no"?>
<svg
   xmlns:dc="http://purl.org/dc/elements/1.1/"
   xmlns:cc="http://creativecommons.org/ns#"
   xmlns:rdf="http://www.w3.org/1999/02/22-rdf-syntax-ns#"
   xmlns:svg="http://www.w3.org/2000/svg"
   xmlns="http://www.w3.org/2000/svg"
   xmlns:sodipodi="http://sodipodi.sourceforge.net/DTD/sodipodi-0.dtd"
   xmlns:inkscape="http://www.inkscape.org/namespaces/inkscape"
   width="256mm"
   height="256mm"
   viewBox="0 0 256 256"
   version="1.1"
   id="svg8"
   inkscape:version="1.0.2 (e86c870879, 2021-01-15)"
   sodipodi:docname="kink.svg">
  <defs
     id="defs2" />
  <sodipodi:namedview
     id="base"
     pagecolor="#ffffff"
     bordercolor="#666666"
     borderopacity="1.0"
     inkscape:pageopacity="0.0"
     inkscape:pageshadow="2"
     inkscape:zoom="0.35"
     inkscape:cx="400"
     inkscape:cy="560"
     inkscape:document-units="mm"
     inkscape:current-layer="layer1"
     inkscape:document-rotation="0"
     showgrid="false"
     fit-margin-top="0"
     fit-margin-left="0"
     fit-margin-right="0"
     fit-margin-bottom="0"
     inkscape:window-width="1920"
     inkscape:window-height="1007"
     inkscape:window-x="0"
     inkscape:window-y="0"
     inkscape:window-maximized="1" />
  <metadata
     id="metadata5">
    <rdf:RDF>
      <cc:Work
         rdf:about="">
        <dc:format>image/svg+xml</dc:format>
        <dc:type
           rdf:resource="http://purl.org/dc/dcmitype/StillImage" />
        <dc:title />
      </cc:Work>
    </rdf:RDF>
  </metadata>
  <g
     inkscape:label="Laag 1"
     inkscape:groupmode="layer"
     id="layer1">
    <rect
       style="fill:#ffffff;stroke:none;stroke-width:0.178524"
       id="rect901"
       width="256"
       height="256"
       x="-1.7763568e-15"
       y="0" />
    <path
       style="fill:#8c8c8c;stroke-width:0.5;fill-opacity:1"
       d="M 0,128 V 0 H 128 256 V 128 256 H 128 0 Z m 111.26755,84 C 136.0121,171.08966 142.488,160.30388 147.57481,151.52936 L 153.5,141.30873 V 180.15436 219 H 186 218.5 V 125.49999 32 h -32.49699 -32.497 L 153.37803,71.433864 153.25004,110.86773 132.17997,71.558863 111.10994,32.249999 73.054968,32.121873 c -20.930234,-0.07047 -38.054969,-0.03494 -38.054969,0.07895 0,0.113882 12.622272,20.735701 28.049495,45.82625 l 28.049489,45.619187 -2.964169,4.30186 C 76.270019,145.16736 26.5,218.44462 26.5,218.69413 c 0,0.17148 18.154088,0.2542 40.342419,0.18383 l 40.342411,-0.12799 z"
       id="path899" />
  </g>
</svg>
